# xmcd CD database file
#
# Track frame offsets:
#	150
#	22983
#	44372
#	67945
#	88697
#	107049
#	127586
#	143519
#	162102
#	190336
#	212430
#	235451
#	255592
#	280131
#	297619
#	318111
#	341722
#
# Disc length: 4794 seconds
#
# Revision: 0
# Processed by: cddbd v1.5.1PL0 Copyright (c) Steve Scherf et al.
# Submitted via: CDex 1.51
#
DISCID=ec12b811
DTITLE=salseros de coyuca - lo mejor de la salsa 2
DYEAR=1900
DGENRE=Salsa
TTITLE0=amores como el nuestro
TTITLE1=amor traicionero
TTITLE2=invierno en primavera
TTITLE3=la vida es un carnaval
TTITLE4=me gustas
TTITLE5=ranacimiento
TTITLE6=todo me recuerda a tí
TTITLE7=nadie que te quiera como yo
TTITLE8=un montón de estrellas
TTITLE9=que alguien me diga
TTITLE10=no llores por mí
TTITLE11=por el amor a mi madre
TTITLE12=tu y yo somos uno solo
TTITLE13=sirena
TTITLE14=que pasó
TTITLE15=vuelveme a querer
TTITLE16=las páginas demi vida
EXTD=
EXTT0=
EXTT1=
EXTT2=
EXTT3=
EXTT4=
EXTT5=
EXTT6=
EXTT7=
EXTT8=
EXTT9=
EXTT10=
EXTT11=
EXTT12=
EXTT13=
EXTT14=
EXTT15=
EXTT16=
PLAYORDER=
